<?xml version="1.0" encoding="UTF-8" standalone="no"?>
<svg
   xmlns:dc="http://purl.org/dc/elements/1.1/"
   xmlns:cc="http://creativecommons.org/ns#"
   xmlns:rdf="http://www.w3.org/1999/02/22-rdf-syntax-ns#"
   xmlns:svg="http://www.w3.org/2000/svg"
   xmlns="http://www.w3.org/2000/svg"
   xmlns:sodipodi="http://sodipodi.sourceforge.net/DTD/sodipodi-0.dtd"
   xmlns:inkscape="http://www.inkscape.org/namespaces/inkscape"
   version="1.1"
   id="moonclouds"
   x="0px"
   y="0px"
   viewBox="0 0 232 196"
   enable-background="new 0 0 232 196"
   xml:space="preserve"
   sodipodi:docname="scattered clouds.svg"
   inkscape:version="1.0.1 (3bc2e813f5, 2020-09-07)"><metadata
   id="metadata19"><rdf:RDF><cc:Work
       rdf:about=""><dc:format>image/svg+xml</dc:format><dc:type
         rdf:resource="http://purl.org/dc/dcmitype/StillImage" /></cc:Work></rdf:RDF></metadata><defs
   id="defs17" /><sodipodi:namedview
   pagecolor="#ffffff"
   bordercolor="#666666"
   borderopacity="1"
   objecttolerance="10"
   gridtolerance="10"
   guidetolerance="10"
   inkscape:pageopacity="0"
   inkscape:pageshadow="2"
   inkscape:window-width="1366"
   inkscape:window-height="715"
   id="namedview15"
   showgrid="false"
   inkscape:zoom="1.5765306"
   inkscape:cx="112.54127"
   inkscape:cy="130.41846"
   inkscape:window-x="-8"
   inkscape:window-y="22"
   inkscape:window-maximized="1"
   inkscape:current-layer="g12" />
<g
   id="g12">
	<path
   fill="none"
   d="M85.0195,36c1.2968,0,2.5156,0.6289,3.2656,1.6877c0.75,1.0584,0.9376,2.418,0.5076,3.6403   C88.2655,42.8205,88,44.3945,88,46c0,7.7189,6.2891,14,14.0155,14h103.9688C213.7107,60,220,53.7189,220,46   c0-7.7187-6.2893-14-14.0157-14h-27.008c-1.3008,0-2.5156-0.6287-3.2656-1.6915c-0.75-1.0624-0.9372-2.4176-0.5036-3.6445   C175.7343,25.1757,176,23.6093,176,22c0-7.7187-6.2893-14-14.0157-14H58.0155C50.2891,8,44,14.2813,44,22   c0,7.7189,6.2891,14,14.0155,14H85.0195z"
   id="path2" />
	<path
   fill="none"
   d="M97.3907,122.8009c0-1.0508-0.176-2.086-0.5236-3.0664c-0.4336-1.2265-0.246-2.582,0.504-3.6444   c0.75-1.0628,1.9649-1.6916,3.2656-1.6916h18.1288c5.0936,0,9.2345-4.1248,9.2345-9.1992S123.8591,96,118.7655,96h-70.922   c-5.0936,0-9.2344,4.1249-9.2344,9.1993c0,1.0508,0.176,2.086,0.5236,3.0664c0.4336,1.2263,0.246,2.582-0.504,3.6444   c-0.75,1.0628-1.9647,1.6916-3.2656,1.6916H17.2343c-5.0936,0-9.2343,4.1248-9.2343,9.1992C8,127.8749,12.1407,132,17.2343,132   h70.922C93.2499,132,97.3907,127.8749,97.3907,122.8009z"
   id="path4" />
	<path
   fill="none"
   d="M214.7655,169.6017h-20.1564c-2.2108,0-4-1.7892-4-4c0-5.0744-4.1444-9.2032-9.238-9.2032h-70.918   c-5.094,0-9.2344,4.1288-9.2344,9.2032c0,5.074,4.1404,9.1992,9.2344,9.1992h20.156c2.2112,0,4,1.7892,4,4   c0,5.074,4.1408,9.1991,9.2344,9.1991h70.922c5.0936,0,9.2345-4.1251,9.2345-9.1991   C224,173.7265,219.8591,169.6017,214.7655,169.6017z"
   id="path6" />
	<path
   fill="none"
   d="M110.4531,148.3985h60.2008c0.2428-0.4344,0.5592-0.8368,0.9712-1.168C189.6563,132.7109,200,111.1213,200,88   c0-6.7911-0.9333-13.5051-2.7-20h-95.2845C89.8751,68,80,58.1289,80,46c0-0.672,0.0311-1.336,0.0899-2H62.0327   C52.8587,56.9013,48,72.1045,48,88h70.7655C128.2695,88,136,95.7149,136,105.1993s-7.7305,17.1992-17.2345,17.1992h-13.3788   c0.004,0.1328,0.004,0.2695,0.004,0.4024c0,9.4844-7.7307,17.1991-17.2344,17.1991H68.6207   c7.3928,7.8725,16.3688,14.0857,26.3353,18.2129C97.7363,152.4313,103.6095,148.3985,110.4531,148.3985z"
   id="path8" />
	<path
   d="M214.7655,161.6017h-16.6248c-1.7452-7.2804-8.1567-12.7268-15.8812-13.1264C198.6875,132.6725,208,111.0357,208,88   c0-6.7767-0.8537-13.4779-2.4497-20h0.434C218.1251,68,228,58.1289,228,46c0-12.1287-9.8749-22-22.0157-22h-22.0744   C183.9687,23.34,184,22.672,184,22c0-12.1287-9.8749-22-22.0157-22H58.0155C45.8751,0,36,9.8713,36,22   c0,10.3585,7.2115,19.0473,16.8767,21.3701C44.4623,56.7333,40,72.0457,40,88c0,0.6309,0.1755,1.2065,0.4347,1.7369   c-5.7892,2.776-9.8256,8.6351-9.8256,15.4624c0,0.1327,0,0.2696,0.004,0.4024H17.2343C7.7303,105.6017,0,113.3165,0,122.8009   S7.7303,140,17.2343,140h40.7948c9.2456,11.7153,21.4264,20.7589,35.2492,26.1917c0.32,9.206,7.8732,16.6092,17.1748,16.6092   h16.6248C128.8907,190.3633,135.7187,196,143.8435,196h70.922c9.504,0,17.2345-7.7148,17.2345-17.1991   C232,169.3165,224.2695,161.6017,214.7655,161.6017z M44,22c0-7.7187,6.2891-14,14.0155-14h103.9688C169.7107,8,176,14.2813,176,22   c0,1.6093-0.2657,3.1757-0.7929,4.664c-0.4336,1.2269-0.2464,2.5821,0.5036,3.6445c0.75,1.0628,1.9648,1.6915,3.2656,1.6915h27.008   C213.7107,32,220,38.2813,220,46c0,7.7189-6.2893,14-14.0157,14H102.0155C94.2891,60,88,53.7189,88,46   c0-1.6055,0.2655-3.1795,0.7927-4.672c0.43-1.2223,0.2424-2.5819-0.5076-3.6403C87.5351,36.6289,86.3163,36,85.0195,36h-27.004   C50.2891,36,44,29.7189,44,22z M8,122.8009c0-5.0744,4.1407-9.1992,9.2343-9.1992h18.1288c1.3009,0,2.5156-0.6288,3.2656-1.6916   c0.75-1.0624,0.9376-2.4181,0.504-3.6444c-0.3476-0.9804-0.5236-2.0156-0.5236-3.0664c0-5.0744,4.1408-9.1993,9.2344-9.1993h70.922   c5.0936,0,9.2345,4.1249,9.2345,9.1993s-4.1409,9.1992-9.2345,9.1992h-18.1288c-1.3007,0-2.5156,0.6288-3.2656,1.6916   c-0.75,1.0624-0.9376,2.4179-0.504,3.6444c0.3476,0.9804,0.5236,2.0156,0.5236,3.0664c0,5.074-4.1408,9.1991-9.2344,9.1991h-70.922   C12.1407,132,8,127.8749,8,122.8009z M68.6207,140h19.5356c9.5037,0,17.2344-7.7147,17.2344-17.1991   c0-0.1329,0-0.2696-0.004-0.4024h13.3788c9.504,0,17.2345-7.7148,17.2345-17.1992S128.2695,88,118.7655,88H48   c0-15.8955,4.8587-31.0987,14.0327-44h18.0572C80.0311,44.664,80,45.328,80,46c0,12.1289,9.8751,22,22.0155,22H197.3   c1.7667,6.4949,2.7,13.2089,2.7,20c0,23.1213-10.3437,44.7109-28.3749,59.2305c-0.412,0.3312-0.7284,0.7336-0.9712,1.168h-60.2008   c-6.8436,0-12.7168,4.0328-15.4971,9.8144C84.9895,154.0857,76.0135,147.8725,68.6207,140z M214.7655,188h-70.922   c-5.0936,0-9.2344-4.1251-9.2344-9.1991c0-2.2108-1.7888-4-4-4h-20.156c-5.094,0-9.2344-4.1252-9.2344-9.1992   c0-5.0744,4.1404-9.2032,9.2344-9.2032h70.918c5.0936,0,9.238,4.1288,9.238,9.2032c0,2.2108,1.7892,4,4,4h20.1564   c5.0936,0,9.2345,4.1248,9.2345,9.1992C224,183.8749,219.8591,188,214.7655,188z"
   id="path10"
   style="fill:#e7e7eb;fill-opacity:1" />
</g>
</svg>
