<?xml version="1.0" encoding="UTF-8" standalone="no"?>
<svg
   xmlns:dc="http://purl.org/dc/elements/1.1/"
   xmlns:cc="http://creativecommons.org/ns#"
   xmlns:rdf="http://www.w3.org/1999/02/22-rdf-syntax-ns#"
   xmlns:svg="http://www.w3.org/2000/svg"
   xmlns="http://www.w3.org/2000/svg"
   xmlns:sodipodi="http://sodipodi.sourceforge.net/DTD/sodipodi-0.dtd"
   xmlns:inkscape="http://www.inkscape.org/namespaces/inkscape"
   height="108"
   style="clip-rule:evenodd;fill-rule:evenodd;stroke-linejoin:round;stroke-miterlimit:1.41421"
   version="1.1"
   viewBox="0 0 108 108"
   width="108"
   xml:space="preserve"
   id="svg5"
   sodipodi:docname="search-icon.svg"
   inkscape:version="1.0.1 (3bc2e813f5, 2020-09-07)"><metadata
     id="metadata11"><rdf:RDF><cc:Work
         rdf:about=""><dc:format>image/svg+xml</dc:format><dc:type
           rdf:resource="http://purl.org/dc/dcmitype/StillImage" /><dc:title></dc:title></cc:Work></rdf:RDF></metadata><defs
     id="defs9" /><sodipodi:namedview
     pagecolor="#ffffff"
     bordercolor="#666666"
     borderopacity="1"
     objecttolerance="10"
     gridtolerance="10"
     guidetolerance="10"
     inkscape:pageopacity="0"
     inkscape:pageshadow="2"
     inkscape:window-width="1366"
     inkscape:window-height="715"
     id="namedview7"
     showgrid="false"
     inkscape:zoom="4.6484375"
     inkscape:cx="105.41176"
     inkscape:cy="38.184874"
     inkscape:window-x="-8"
     inkscape:window-y="22"
     inkscape:window-maximized="1"
     inkscape:current-layer="svg5" /><rect
     height="128"
     id="Search"
     style="fill:none"
     width="128"
     x="0.211"
     y="0" /><path
     d="m 69.693206,73.562304 c -11.617,10.144 -28.988,13.34 -43.601,7.365 -17.62,-7.204 -28.844,-27.468 -25.47300002,-46.322 C 3.992206,15.738304 21.534206,0.47730385 41.150206,0.04230385 c 0.361,-0.006 0.722,-0.008 1.084,-0.007 19.279,0.183 37.454,15.06000015 41.025,34.31200015 2.394,12.904 -1.734,26.845 -10.689,36.433 L 107.35721,104.6003 c 0.746,0.788 0.617,1.05 0.605,1.489 -0.042,1.525 -2.11,2.527 -3.394,1.379 z m -27.976,-69.5270002 c -17.208,0.163 -33.355,13.1730002 -36.934,30.1110002 -2.634,12.469 1.515,26.166 10.639,35.073 10.478,10.228 27.063,13.662 40.897,8.005 16.003,-6.542 26.182,-25.034 23.007,-42.148 -3.147,-16.967 -18.86,-30.6400002 -36.627,-31.0350002 -0.328,-0.005 -0.655,-0.007 -0.982,-0.006 z"
     style="fill:#616475;fill-opacity:1;fill-rule:nonzero"
     id="path3" /></svg>
