<?xml version="1.0" encoding="UTF-8" standalone="no"?>
<svg
   xmlns:dc="http://purl.org/dc/elements/1.1/"
   xmlns:cc="http://creativecommons.org/ns#"
   xmlns:rdf="http://www.w3.org/1999/02/22-rdf-syntax-ns#"
   xmlns:svg="http://www.w3.org/2000/svg"
   xmlns="http://www.w3.org/2000/svg"
   xmlns:sodipodi="http://sodipodi.sourceforge.net/DTD/sodipodi-0.dtd"
   xmlns:inkscape="http://www.inkscape.org/namespaces/inkscape"
   data-name="图层 1"
   id="图层_1"
   viewBox="0 0 500 500"
   version="1.1"
   sodipodi:docname="shower rain.svg"
   inkscape:version="1.0.1 (3bc2e813f5, 2020-09-07)">
  <metadata
     id="metadata77">
    <rdf:RDF>
      <cc:Work
         rdf:about="">
        <dc:format>image/svg+xml</dc:format>
        <dc:type
           rdf:resource="http://purl.org/dc/dcmitype/StillImage" />
      </cc:Work>
    </rdf:RDF>
  </metadata>
  <sodipodi:namedview
     pagecolor="#ffffff"
     bordercolor="#666666"
     borderopacity="1"
     objecttolerance="10"
     gridtolerance="10"
     guidetolerance="10"
     inkscape:pageopacity="0"
     inkscape:pageshadow="2"
     inkscape:window-width="1366"
     inkscape:window-height="715"
     id="namedview75"
     showgrid="false"
     inkscape:zoom="1.236"
     inkscape:cx="250"
     inkscape:cy="250"
     inkscape:window-x="-8"
     inkscape:window-y="22"
     inkscape:window-maximized="1"
     inkscape:current-layer="图层_1" />
  <defs
     id="defs4">
    <style
       id="style2">.cls-1{fill:none;}.cls-2{fill:#231815;}</style>
  </defs>
  <title
     id="title6" />
  <path
     class="cls-1"
     d="M236.74,256.16A82.26,82.26,0,0,1,316,225.67a76.12,76.12,0,0,1,10.36,2.59,82.65,82.65,0,0,0-64.92-68.08c-33.28-6.74-68.23,8.91-85.76,37.86a83,83,0,0,0-4.39,76.63A71.06,71.06,0,0,1,236.74,256.16Z"
     id="path8"
     style="fill:#e7e7a5;fill-opacity:1" />
  <path
     class="cls-2"
     d="M171.25,274.66A83,83,0,0,1,175.64,198c17.54-28.95,52.48-44.6,85.76-37.86a82.65,82.65,0,0,1,64.92,68.08,78.24,78.24,0,0,1,15.84,7.19,98,98,0,0,0-63.86-86.09c-37.69-13.82-81.9-1.62-107.27,29.43-25,30.58-29.25,74.26-10,108.75A67.67,67.67,0,0,1,171.25,274.66Z"
     id="path10"
     style="fill:#e7e7a5;fill-opacity:1" />
  <path
     class="cls-2"
     d="M253.07,115.58V81.92c0-9.65-15-9.67-15,0v33.65C238.07,125.23,253.07,125.25,253.07,115.58Zm-7.5-33.65v0Z"
     id="path12"
     style="fill:#e7e7eb;fill-opacity:1" />
  <path
     class="cls-2"
     d="M189.61,128.52,172.79,99.37c-4.83-8.36-17.79-.81-13,7.57l16.83,29.15C181.49,144.45,194.46,136.9,189.61,128.52Zm-6.48,3.79-16.83-29.15Z"
     id="path14"
     style="fill:#e7e7eb;fill-opacity:1" />
  <path
     class="cls-2"
     d="M141.22,171.53,112.08,154.7c-8.37-4.84-15.94,8.12-7.57,13l29.15,16.83C142,189.32,149.59,176.36,141.22,171.53Zm-32.93-10.35L137.44,178Z"
     id="path16"
     style="fill:#e7e7eb;fill-opacity:1" />
  <path
     class="cls-2"
     d="M87.06,247.93h33.65c9.65,0,9.67-15,0-15H87.06C77.4,232.93,77.39,247.93,87.06,247.93Zm33.65-7.5h0Z"
     id="path18"
     style="fill:#e7e7eb;fill-opacity:1" />
  <path
     class="cls-2"
     d="M112.08,326.16l29.15-16.83c8.36-4.83.81-17.79-7.57-13l-29.15,16.83C96.15,318,103.69,331,112.08,326.16Zm25.36-23.3-29.15,16.83Z"
     id="path20"
     style="fill:#e7e7eb;fill-opacity:1" />
  <path
     class="cls-2"
     d="M370.42,247.93h33.65c9.65,0,9.67-15,0-15H370.42C360.77,232.93,360.75,247.93,370.42,247.93Zm0-7.5h0Z"
     id="path22"
     style="fill:#e7e7eb;fill-opacity:1" />
  <path
     class="cls-2"
     d="M379.06,154.7l-29.15,16.83c-8.36,4.83-.81,17.79,7.57,13l29.15-16.83C395,162.83,387.44,149.86,379.06,154.7ZM353.7,178l29.15-16.83Z"
     id="path24"
     style="fill:#e7e7eb;fill-opacity:1" />
  <path
     class="cls-2"
     d="M314.47,136.09l16.83-29.15c4.84-8.37-8.12-15.94-13-7.57l-16.83,29.15C296.68,136.89,309.64,144.46,314.47,136.09Zm10.35-32.93L308,132.3Z"
     id="path26"
     style="fill:#e7e7eb;fill-opacity:1" />
  <path
     class="cls-2"
     d="M378.77,281.7c-.46-1.45-1-2.87-1.51-4.28-1.23-.35-2.47-.68-3.73-1Z"
     id="path28"
     style="fill:#e7e7eb;fill-opacity:1" />
  <path
     class="cls-2"
     d="M377.25,277.41c.54,1.41,1,2.84,1.51,4.28l-5.24-5.24c1.26.27,2.5.6,3.73,1a83.68,83.68,0,0,0-35.1-42c.1,1.65.17,3.31.18,5,0,1.3-.05,2.6-.12,3.89a73.86,73.86,0,0,1,29.32,39.37,51.75,51.75,0,0,1-10.34,102.46H354c0,3.78,2.36,7.56,7.24,7.5A59.9,59.9,0,0,0,420,341.31C423.52,312.56,404.68,285.29,377.25,277.41Z"
     id="path30"
     style="fill:#e7e7eb;fill-opacity:1" />
  <path
     class="cls-2"
     d="M241.72,257.48c-1.65-.51-3.31-.94-5-1.32q-1.82,2.31-3.49,4.77Z"
     id="path32"
     style="fill:#e7e7eb;fill-opacity:1" />
  <path
     class="cls-2"
     d="M220.54,261.69a62.16,62.16,0,0,1,19.18,3,73.75,73.75,0,0,1,87.48-28.16,82.08,82.08,0,0,0-.89-8.28A76.12,76.12,0,0,0,316,225.67a82.26,82.26,0,0,0-79.21,30.48c1.67.38,3.33.81,5,1.32l-8.47,3.45q1.67-2.46,3.49-4.77a71.06,71.06,0,0,0-65.49,18.51,78.63,78.63,0,0,0,3.61,7A62.05,62.05,0,0,1,220.54,261.69Z"
     id="path34"
     style="fill:#e7e7eb;fill-opacity:1" />
  <path
     class="cls-2"
     d="M158.31,323.92a61.94,61.94,0,0,1,7.23-29.11c-1-1.44-1.95-2.9-2.86-4.4-.57-.94-1.12-1.9-1.65-2.86q-.81,1.33-1.57,2.71c-15.16,27.65-9.62,63.37,13.66,84.79a70.91,70.91,0,0,0,47.42,18.61c4.86.05,7.27-3.72,7.24-7.5h-7.24A62.23,62.23,0,0,1,158.31,323.92Z"
     id="path36"
     style="fill:#e7e7eb;fill-opacity:1" />
  <path
     class="cls-2"
     d="M165.54,294.8a62.36,62.36,0,0,1,9.32-13.13,78.63,78.63,0,0,1-3.61-7A67.67,67.67,0,0,0,161,287.55c.54,1,1.08,1.91,1.65,2.86C163.59,291.9,164.56,293.36,165.54,294.8Z"
     id="path38"
     style="fill:#e7e7eb;fill-opacity:1" />
  <path
     class="cls-2"
     d="M342.22,244.32c.06-1.29.11-2.59.12-3.89a7.44,7.44,0,0,1-.77,3.46Z"
     id="path40"
     style="fill:#e7e7eb;fill-opacity:1" />
  <path
     class="cls-2"
     d="M327.21,236.55l1,.38c3.17-6,14.22-4.79,14.15,3.5,0-1.67-.08-3.33-.18-5a78.24,78.24,0,0,0-15.84-7.19A82.08,82.08,0,0,1,327.21,236.55Z"
     id="path42"
     style="fill:#e7e7eb;fill-opacity:1" />
  <path
     class="cls-2"
     d="M328.18,236.93a73.48,73.48,0,0,1,13.39,7,7.44,7.44,0,0,0,.77-3.46C342.4,232.14,331.35,231,328.18,236.93Z"
     id="path44"
     style="fill:#e7e7eb;fill-opacity:1" />
  <path
     class="cls-2"
     d="M220.54,378.65c-24.5-.27-46.36-16.6-52.84-40.4a54.61,54.61,0,0,1,3-36.61q-2.71-3.29-5.14-6.84a62.23,62.23,0,0,0,55,91.35h7.24C227.75,382.43,225.34,378.71,220.54,378.65Z"
     id="path46"
     style="fill:#e7e7eb;fill-opacity:1" />
  <path
     class="cls-2"
     d="M412.94,334.4a51.77,51.77,0,0,0-41.41-50.71,73.86,73.86,0,0,0-29.32-39.37q-.21,4.42-.82,8.77a66.85,66.85,0,0,1,22.91,32.59,7.54,7.54,0,0,0,5.24,5.24c22.53,4.89,38.5,25.75,35.61,49-2.74,22.09-22,38.41-44,38.7-4.78.06-7.2,3.78-7.24,7.5h7.24A51.75,51.75,0,0,0,412.94,334.4Z"
     id="path48"
     style="fill:#e7e7eb;fill-opacity:1" />
  <path
     class="cls-2"
     d="M193.3,276.44c13.58-7.83,29.54-9.09,44.43-4.49,3.34,1,6.63-.74,8.47-3.45,14.65-21.54,41.42-33.14,67.15-28.1a66.9,66.9,0,0,1,13.82,4.31c.09-1.42.15-2.84.16-4.27s-.06-2.6-.13-3.88a73.75,73.75,0,0,0-87.48,28.16,62.23,62.23,0,0,0-64.87,17,77.3,77.3,0,0,0,4.29,6.55A54.16,54.16,0,0,1,193.3,276.44Z"
     id="path50"
     style="fill:#e7e7eb;fill-opacity:1" />
  <path
     class="cls-2"
     d="M327.33,240.43c0,1.43-.07,2.85-.16,4.27q1.3.57,2.57,1.18A6.94,6.94,0,0,1,327.33,240.43Z"
     id="path52"
     style="fill:#e7e7eb;fill-opacity:1" />
  <path
     class="cls-2"
     d="M332.63,247.37a67.23,67.23,0,0,1,8.76,5.72q.61-4.34.82-8.77l-.65-.43C339.93,247.12,336,248.28,332.63,247.37Z"
     id="path54"
     style="fill:#e7e7eb;fill-opacity:1" />
  <path
     class="cls-2"
     d="M329.75,245.89q1.46.71,2.88,1.48c3.34.91,7.3-.25,8.93-3.48a73.48,73.48,0,0,0-13.39-7,7.49,7.49,0,0,0-.85,3.5A6.94,6.94,0,0,0,329.75,245.89Z"
     id="path56"
     style="fill:#e7e7eb;fill-opacity:1" />
  <path
     class="cls-2"
     d="M328.18,236.93l-1-.38c.07,1.29.12,2.58.13,3.88A7.49,7.49,0,0,1,328.18,236.93Z"
     id="path58"
     style="fill:#e7e7eb;fill-opacity:1" />
  <path
     class="cls-2"
     d="M174.86,281.67a62.36,62.36,0,0,0-9.32,13.13q2.43,3.55,5.14,6.84a55.65,55.65,0,0,1,8.47-13.42A77.3,77.3,0,0,1,174.86,281.67Z"
     id="path60"
     style="fill:#e7e7eb;fill-opacity:1" />
  <path
     class="cls-2"
     d="M248.45,354c-1.45-3.78-5-6.39-9.23-5.24-3.61,1-6.7,5.42-5.24,9.23l7.37,19.2c1.45,3.78,5,6.39,9.23,5.24,3.61-1,6.7-5.42,5.24-9.23Zm-7.23,2,7.37,19.2Z"
     id="path62"
     style="fill:#e7e7eb;fill-opacity:1" />
  <path
     class="cls-2"
     d="M267.06,425.31c3.62-1,6.7-5.42,5.24-9.23l-7.37-19.2c-1.45-3.78-5-6.39-9.23-5.24-3.61,1-6.7,5.42-5.24,9.23l7.37,19.2C259.28,423.85,262.88,426.46,267.06,425.31Zm-2-7.23-7.37-19.2Z"
     id="path64"
     style="fill:#e7e7eb;fill-opacity:1" />
  <path
     class="cls-2"
     d="M286.42,354c-1.45-3.78-5-6.39-9.23-5.24-3.61,1-6.7,5.42-5.24,9.23l7.37,19.2c1.45,3.78,5,6.39,9.23,5.24,3.61-1,6.7-5.42,5.24-9.23Zm-7.23,2,7.37,19.2Z"
     id="path66"
     style="fill:#e7e7eb;fill-opacity:1" />
  <path
     class="cls-2"
     d="M302.88,396.88c-1.45-3.78-5-6.39-9.23-5.24-3.61,1-6.7,5.42-5.24,9.23l7.37,19.2c1.45,3.78,5,6.39,9.23,5.24,3.61-1,6.7-5.42,5.24-9.23Zm-7.23,2,7.37,19.2Z"
     id="path68"
     style="fill:#e7e7eb;fill-opacity:1" />
  <path
     class="cls-2"
     d="M324.38,354c-1.45-3.78-5-6.39-9.23-5.24-3.61,1-6.7,5.42-5.24,9.23l7.37,19.2c1.45,3.78,5,6.39,9.23,5.24,3.61-1,6.7-5.42,5.24-9.23Zm-7.23,2,7.37,19.2Z"
     id="path70"
     style="fill:#e7e7eb;fill-opacity:1" />
  <path
     class="cls-2"
     d="M340.84,396.88c-1.45-3.78-5-6.39-9.23-5.24-3.61,1-6.7,5.42-5.24,9.23l7.37,19.2c1.45,3.78,5,6.39,9.23,5.24,3.61-1,6.7-5.42,5.24-9.23Zm-7.23,2,7.37,19.2Z"
     id="path72"
     style="fill:#e7e7eb;fill-opacity:1" />
</svg>
