<?xml version="1.0" encoding="UTF-8" standalone="no"?>
<svg
   xmlns:dc="http://purl.org/dc/elements/1.1/"
   xmlns:cc="http://creativecommons.org/ns#"
   xmlns:rdf="http://www.w3.org/1999/02/22-rdf-syntax-ns#"
   xmlns:svg="http://www.w3.org/2000/svg"
   xmlns="http://www.w3.org/2000/svg"
   xmlns:sodipodi="http://sodipodi.sourceforge.net/DTD/sodipodi-0.dtd"
   xmlns:inkscape="http://www.inkscape.org/namespaces/inkscape"
   viewBox="0 0 500 500"
   version="1.1"
   id="svg15"
   sodipodi:docname="snow.svg"
   inkscape:version="1.0.1 (3bc2e813f5, 2020-09-07)">
  <metadata
     id="metadata19">
    <rdf:RDF>
      <cc:Work
         rdf:about="">
        <dc:format>image/svg+xml</dc:format>
        <dc:type
           rdf:resource="http://purl.org/dc/dcmitype/StillImage" />
      </cc:Work>
    </rdf:RDF>
  </metadata>
  <sodipodi:namedview
     pagecolor="#ffffff"
     bordercolor="#666666"
     borderopacity="1"
     objecttolerance="10"
     gridtolerance="10"
     guidetolerance="10"
     inkscape:pageopacity="0"
     inkscape:pageshadow="2"
     inkscape:window-width="1366"
     inkscape:window-height="715"
     id="namedview17"
     showgrid="false"
     inkscape:zoom="1.236"
     inkscape:cx="250"
     inkscape:cy="250"
     inkscape:window-x="-8"
     inkscape:window-y="22"
     inkscape:window-maximized="1"
     inkscape:current-layer="svg15" />
  <defs
     id="defs4">
    <style
       id="style2">.cls-1{fill:#fff;}.cls-2{fill:#231815;}.cls-3{fill:#2ea7e0;}</style>
  </defs>
  <title
     id="title6" />
  <path
     class="cls-1"
     d="m 325.57,296.69 a 51.75,51.75 0 0 0 10.34,-102.46 73.71,73.71 0 0 0 -131.81,-19 62.24,62.24 0 1 0 -19.18,121.44"
     id="path8" />
  <path
     class="cls-2"
     d="m 325.57,304.19 a 59.9,59.9 0 0 0 58.79,-52.34 c 3.7,-30 -17,-58.47 -46.46,-64.86 l 5.24,5.24 c -9.07,-28.39 -33.17,-50.81 -62.81,-56 a 82.4,82.4 0 0 0 -82.71,35.25 l 8.47,-3.45 c -31.4,-9.69 -66.35,3.77 -82.26,32.77 -15.16,27.65 -9.62,63.37 13.66,84.79 a 70.91,70.91 0 0 0 47.42,18.61 c 9.66,0.11 9.66,-14.89 0,-15 -24.5,-0.27 -46.36,-16.6 -52.84,-40.4 a 55.22,55.22 0 0 1 25.6,-61.8 c 13.58,-7.83 29.54,-9.09 44.43,-4.49 3.34,1 6.63,-0.74 8.47,-3.45 14.64,-21.54 41.42,-33.14 67.15,-28.1 a 67.05,67.05 0 0 1 50.95,45.29 7.54,7.54 0 0 0 5.24,5.24 c 22.53,4.89 38.5,25.75 35.61,49 -2.74,22.09 -22,38.41 -44,38.7 -9.64,0.13 -9.67,15.13 0,15 z"
     id="path10"
     style="fill:#e7e7eb;fill-opacity:1" />
  <path
     class="cls-3"
     d="m 305.79,316.91 -4.64,-2.68 3.14,-1.83 c 8.34,-4.85 0.8,-17.82 -7.57,-13 l -8.45,4.91 c -0.66,0.38 -1.4,0.77 -2.18,1.18 l -3,-1.73 v -14.41 l 3,-1.74 c 0.76,0.4 1.51,0.79 2.18,1.18 l 8.45,4.91 c 8.36,4.86 15.92,-8.1 7.57,-13 l -3.14,-1.83 3,-1.72 1.87,-1.08 c 6.75,-3.9 3.12,-13.11 -2.95,-14 a 6.53,6.53 0 0 0 -1.56,0 7.66,7.66 0 0 0 -3.07,1 l -4.77,2.76 q 0,-1.8 0,-3.6 c 0,-0.23 0,-0.46 0,-0.68 -0.63,-7.9 -11.79,-8.67 -14.41,-2.28 a 7.67,7.67 0 0 0 -0.56,3 v 9.77 c 0,0.74 0,1.57 -0.07,2.42 v 0.1 l -3.84,2.22 -6.19,-3.57 c -1,-0.61 -2.24,-1.41 -3.51,-2.24 -0.64,-0.42 -1.31,-0.85 -2,-1.26 v -4.1 c 0.76,-0.48 1.5,-0.95 2.18,-1.34 l 8.47,-4.86 a 8.2,8.2 0 0 0 1.45,-1.05 c 5.91,-5.39 -1.18,-16.4 -9,-11.9 l -3.09,1.77 V 243 c 0,-9.65 -15,-9.67 -15,0 v 5.32 l -3.1,-1.81 c -7.22,-4.14 -13.83,4.89 -10.17,10.55 a 7.43,7.43 0 0 0 2.6,2.41 l 8.47,4.86 c 0.68,0.39 1.42,0.86 2.18,1.34 v 4.25 c -1.77,1.1 -3.45,2.28 -4.87,3.1 l -6.71,3.88 -3.94,-2.28 c 0,-0.88 -0.07,-1.73 -0.07,-2.52 v -9.77 c 0,-9.65 -15,-9.67 -15,0 q 0,1.8 0,3.6 l -4.77,-2.76 c -8.38,-4.83 -15.94,8.12 -7.57,13 l 4.84,2.8 -3.14,1.83 c -8.34,4.85 -0.8,17.82 7.57,13 l 8.45,-4.91 c 0.66,-0.38 1.4,-0.77 2.18,-1.18 l 3.2,1.85 v 14.23 l -3.2,1.85 c -0.76,-0.4 -1.51,-0.79 -2.18,-1.18 l -8.45,-4.91 c -8.36,-4.86 -15.92,8.1 -7.57,13 l 3.14,1.83 -4.64,2.68 c -8.36,4.83 -0.81,17.79 7.57,13 l 4.58,-2.64 q 0,1.8 0,3.6 c 0,9.65 15,9.67 15,0 v -9.77 c 0,-0.77 0,-1.63 0.07,-2.52 l 2.36,-1.36 7.87,4.54 c 1.53,0.88 3.36,2.19 5.3,3.38 v 2.39 c -0.76,0.48 -1.5,0.95 -2.18,1.34 l -8.47,4.86 c -8.37,4.8 -0.82,17.77 7.57,13 l 3.09,-1.77 v 5.55 c 0,9.65 15,9.67 15,0 v -5.55 l 3.09,1.77 c 8.39,4.81 16,-8.14 7.57,-13 l -8.47,-4.86 c -0.68,-0.39 -1.42,-0.86 -2.18,-1.34 v -2.31 c 1.85,-1.14 3.6,-2.38 5.07,-3.23 l 8.19,-4.73 2.27,1.31 c 0,0.88 0.07,1.73 0.07,2.52 v 9.77 c 0,9.65 15,9.67 15,0 q 0,-1.8 0,-3.6 l 4.58,2.64 c 8.29,4.65 15.85,-8.31 7.49,-13.14 z m -50.12,-5.08 -0.1,-0.06 -5.66,-3.27 -1.84,-1.06 -4.82,-2.78 v -14.34 l 0.74,-0.43 4.08,-2.36 3.42,-2 4.08,-2.36 0.1,-0.06 4.08,2.36 3.32,1.92 4.18,2.41 0.84,0.48 v 14.34 l -5,2.9 -1.74,1 z"
     id="path12" />
</svg>
